<svg width="24" height="24" viewBox="0 0 24 24" fill="none" xmlns="http://www.w3.org/2000/svg">
<g clip-path="url(#clip0_2842_1411)">
<path d="M16.9095 11.5722C16.9275 10.1697 17.6625 8.87446 18.8573 8.14021C18.1005 7.05871 16.8773 6.39796 15.558 6.35671C14.1698 6.21121 12.8243 7.18696 12.117 7.18696C11.3963 7.18696 10.3073 6.37096 9.13428 6.39496C7.59153 6.44521 6.18753 7.30096 5.43678 8.65021C3.83853 11.4177 5.03028 15.4857 6.56178 17.723C7.32828 18.8187 8.22303 20.042 9.39528 19.9992C10.542 19.952 10.9703 19.268 12.354 19.268C13.725 19.268 14.127 19.9992 15.3225 19.9715C16.5525 19.9512 17.328 18.8712 18.0675 17.765C18.618 16.9842 19.0418 16.1217 19.3223 15.209C17.8613 14.591 16.911 13.1592 16.9095 11.5722Z" fill="white"/>
<path d="M14.6514 4.88525C15.3219 4.07975 15.6526 3.04475 15.5724 2C14.5479 2.108 13.6006 2.59775 12.9211 3.37175C12.2499 4.136 11.9094 5.135 11.9754 6.1505C13.0141 6.161 14.0004 5.6945 14.6514 4.88525Z" fill="white"/>
</g>
<defs>
<clipPath id="clip0_2842_1411">
<rect width="18" height="18" fill="white" transform="translate(3 2)"/>
</clipPath>
</defs>
</svg>
